<svg width="18" height="18" viewBox="0 0 18 18" fill="none" xmlns="http://www.w3.org/2000/svg">
<g id="Bold / Map &#38; Location / Map Point">
<path id="Vector" fill-rule="evenodd" clip-rule="evenodd" d="M9.00065 1.9165C5.87104 1.9165 3.33398 4.75167 3.33398 7.93734C3.33398 11.098 5.14259 14.5336 7.96441 15.8526C8.62222 16.16 9.37908 16.16 10.0369 15.8526C12.8587 14.5336 14.6673 11.098 14.6673 7.93734C14.6673 4.75167 12.1303 1.9165 9.00065 1.9165ZM9.00065 8.99984C9.78305 8.99984 10.4173 8.36557 10.4173 7.58317C10.4173 6.80077 9.78305 6.1665 9.00065 6.1665C8.21825 6.1665 7.58398 6.80077 7.58398 7.58317C7.58398 8.36557 8.21825 8.99984 9.00065 8.99984Z" fill="#8D99AB"/>
</g>
</svg>
